<?xml version="1.0" encoding="UTF-8"?>
<!-- Material Symbols (Outlined, weight 400, grade 0, optical size 20),
     Apache License 2.0 — see NOTICE. Filled paths only: GTK recolours a
     symbolic icon by forcing the fill, so a stroke would not follow the
     theme. Generated by scripts/import-icons.sh; edit the source file in
     assets/icons-src rather than this. -->
<svg width="16" height="16" fill="#000000" xmlns="http://www.w3.org/2000/svg" viewBox="0 -960 960 960"><path d="M192-396v-72h288v72H192Zm0-150v-72h432v72H192Zm0-150v-72h432v72H192Zm336 504v-113l210-209q7.26-7.41 16.13-10.71Q763-528 771.76-528q9.55 0 18.31 3.5Q798.83-521 806-514l44 45q6.59 7.26 10.29 16.13Q864-444 864-435.24t-3.29 17.92q-3.3 9.15-10.71 16.32L641-192H528Zm288-243-45-45 45 45ZM576-240h45l115-115-22-23-22-22-116 115v45Zm138-138-22-22 44 45-22-23Z"/></svg>
