<?xml version="1.0" encoding="UTF-8"?>
<!-- Material Symbols (Outlined, weight 400, grade 0, optical size 20),
     Apache License 2.0 — see NOTICE. Filled paths only: GTK recolours a
     symbolic icon by forcing the fill, so a stroke would not follow the
     theme. Generated by scripts/import-icons.sh; edit the source file in
     assets/icons-src rather than this. -->
<svg width="16" height="16" fill="#000000" xmlns="http://www.w3.org/2000/svg" viewBox="0 -960 960 960"><path d="M480-96q-79 0-149-30t-122.5-82.5Q156-261 126-331T96-480q0-80 30-149.5t82.5-122Q261-804 331-834t149-30q63 0 120 19t105 54l-52 52q-37-26-81-39.5T480-792q-130 0-221 91t-91 221q0 130 91 221t221 91q130 0 221-91t91-221q0-21-3-41.5t-8-40.5l57-57q13 32 19.5 67t6.5 72q0 79-30 149t-82.5 122.5Q699-156 629.5-126T480-96Zm-55-211L264-468l52-52 110 110 387-387 51 51-439 439Z"/></svg>
